<?xml version="1.0" standalone="no"?>
<!DOCTYPE svg PUBLIC "-//W3C//DTD SVG 20010904//EN"
 "http://www.w3.org/TR/2001/REC-SVG-20010904/DTD/svg10.dtd">
<svg version="1.0" xmlns="http://www.w3.org/2000/svg"
 width="960.000000pt" height="960.000000pt" viewBox="0 0 960.000000 960.000000"
 preserveAspectRatio="xMidYMid meet">
<metadata>
Created by potrace 1.14, written by Peter Selinger 2001-2017
</metadata>
<g transform="translate(0.000000,960.000000) scale(0.100000,-0.100000)"
fill="#000000" stroke="none">
<path d="M4598 8875 c-2 -1 -48 -5 -103 -9 -55 -3 -119 -8 -142 -11 -93 -11
-119 -14 -143 -19 -14 -3 -41 -8 -60 -10 -141 -20 -362 -70 -515 -119 -55 -17
-105 -32 -112 -33 -23 -4 -281 -103 -373 -144 -280 -122 -574 -295 -790 -463
-9 -7 -33 -25 -55 -42 -22 -16 -45 -34 -51 -40 -6 -5 -29 -25 -52 -43 -140
-114 -266 -233 -402 -379 -47 -50 -96 -105 -110 -123 -26 -33 -50 -62 -79 -96
-48 -56 -121 -155 -121 -164 0 -5 -3 -10 -8 -10 -4 0 -18 -18 -32 -40 -14 -22
-27 -40 -30 -40 -3 0 -14 -15 -24 -32 -10 -18 -34 -56 -52 -85 -19 -28 -34
-56 -34 -62 0 -6 -4 -11 -10 -11 -5 0 -10 -6 -10 -14 0 -8 -4 -16 -9 -18 -5
-1 -17 -21 -28 -43 -12 -22 -52 -102 -91 -177 -38 -76 -68 -138 -66 -138 2 0
-7 -19 -20 -42 -13 -24 -25 -47 -26 -53 -1 -5 -7 -21 -13 -35 -6 -14 -11 -27
-12 -30 -1 -3 -7 -18 -14 -35 -7 -16 -14 -34 -15 -40 -2 -5 -6 -17 -9 -25 -21
-50 -66 -180 -62 -180 2 0 -2 -15 -10 -34 -8 -18 -16 -44 -19 -57 -2 -13 -11
-44 -19 -69 -17 -49 -55 -204 -63 -260 -3 -19 -7 -37 -9 -40 -2 -3 -6 -24 -9
-46 -4 -22 -8 -51 -11 -64 -3 -13 -7 -40 -10 -60 -3 -20 -7 -45 -9 -57 -3 -12
-8 -53 -12 -90 -3 -37 -8 -79 -10 -93 -25 -194 -25 -583 1 -805 3 -22 7 -62 9
-90 3 -27 10 -77 16 -110 6 -33 13 -78 16 -100 3 -22 14 -80 25 -130 11 -49
22 -101 25 -115 20 -102 91 -339 145 -485 100 -268 291 -649 386 -770 4 -5 14
-22 22 -37 8 -16 18 -28 23 -28 4 0 8 -5 8 -10 0 -16 169 -246 225 -306 5 -6
26 -30 45 -54 131 -162 364 -386 583 -560 11 -8 24 -20 31 -25 6 -6 33 -26 61
-45 27 -19 55 -39 62 -45 58 -47 142 -105 153 -105 6 0 10 -4 10 -8 0 -5 18
-17 40 -28 22 -10 40 -22 40 -26 0 -5 7 -8 15 -8 8 0 15 -4 15 -8 0 -4 30 -23
68 -42 37 -19 70 -39 74 -45 4 -5 8 -6 8 -1 0 5 8 2 18 -6 14 -13 167 -91 182
-93 3 -1 25 -10 50 -22 123 -57 145 -67 150 -68 5 -2 19 -7 83 -31 188 -71
197 -74 197 -68 0 4 6 2 13 -4 7 -6 25 -13 39 -16 15 -2 65 -16 110 -30 80
-24 196 -54 248 -62 14 -3 33 -7 42 -10 20 -6 48 -11 103 -20 22 -4 49 -8 60
-10 11 -2 36 -5 55 -8 19 -3 44 -8 55 -10 11 -2 58 -7 104 -11 47 -4 94 -9
105 -12 35 -8 526 -10 616 -3 118 10 232 22 252 25 9 2 38 7 65 11 26 3 57 8
68 10 11 3 36 7 55 10 190 28 525 121 735 205 17 7 35 13 42 15 26 5 257 110
394 179 81 41 201 109 267 152 118 76 332 229 382 272 39 35 61 53 114 96 64
51 192 172 270 254 34 35 84 87 111 116 28 29 62 68 77 86 14 19 35 44 45 55
10 12 32 39 48 60 17 20 36 43 43 50 6 7 12 15 12 19 0 3 11 18 25 33 14 15
25 31 25 35 0 5 6 14 13 21 6 8 19 24 27 36 8 12 21 28 28 36 6 7 12 17 12 23
0 6 4 11 9 11 5 0 11 8 15 18 5 16 20 42 39 66 21 28 80 124 96 155 10 20 50
98 89 174 38 75 68 137 66 137 -2 0 8 20 22 45 13 25 22 45 19 45 -3 0 1 12 9
28 24 42 118 293 130 347 2 6 8 30 15 55 7 25 13 46 12 47 0 2 6 18 15 38 8
19 12 35 10 35 -3 0 1 18 9 40 8 22 12 40 10 40 -2 0 1 15 6 33 11 36 17 59
25 101 2 16 7 32 9 35 2 4 6 27 9 51 3 25 8 56 11 70 3 14 7 41 10 60 3 19 6
44 9 55 5 24 14 107 21 190 3 33 8 78 11 100 16 112 10 492 -10 695 -14 131
-15 146 -26 205 -6 33 -13 78 -16 100 -3 22 -14 81 -25 130 -11 50 -22 101
-25 115 -36 181 -151 522 -253 747 -83 183 -220 434 -278 508 -4 6 -14 22 -22
38 -8 15 -18 27 -23 27 -4 0 -8 5 -8 10 0 16 -169 246 -225 306 -5 6 -26 30
-45 54 -19 24 -53 63 -75 86 -22 23 -70 72 -106 110 -121 127 -243 238 -402
364 -11 8 -24 20 -31 25 -6 6 -33 26 -61 45 -27 19 -55 40 -62 45 -58 47 -142
105 -153 105 -6 0 -10 4 -10 8 0 5 -18 17 -40 28 -22 10 -40 22 -40 27 0 4 -7
7 -15 7 -8 0 -15 4 -15 8 0 4 -30 23 -67 42 -38 19 -71 40 -75 45 -4 6 -8 6
-8 1 0 -5 -8 -2 -17 6 -15 13 -168 91 -183 93 -5 1 -54 23 -140 63 -19 9 -37
17 -40 18 -6 1 -36 12 -65 24 -19 8 -54 21 -65 25 -3 1 -18 7 -35 14 -16 7
-37 14 -45 16 -8 2 -39 13 -67 24 -29 10 -53 18 -53 16 0 -2 -16 3 -35 11 -19
8 -35 12 -35 9 0 -3 -13 1 -30 10 -16 9 -30 13 -30 11 0 -3 -12 -1 -27 5 -28
11 -47 16 -93 25 -14 3 -33 7 -42 10 -18 5 -47 12 -88 20 -14 3 -33 7 -42 10
-20 6 -42 10 -94 19 -22 3 -50 7 -64 10 -14 2 -41 6 -60 9 -19 3 -44 7 -55 10
-11 2 -54 7 -95 10 -41 4 -88 9 -105 12 -33 5 -542 13 -547 9z m437 -770 c121
-9 142 -11 200 -20 28 -4 57 -8 65 -10 24 -3 125 -19 130 -20 3 -1 19 -4 35
-8 17 -4 40 -10 53 -12 12 -3 30 -7 40 -10 60 -16 92 -22 92 -18 0 3 6 1 13
-5 10 -8 62 -23 84 -24 5 0 16 -4 26 -10 10 -5 27 -11 38 -13 12 -2 55 -17 97
-33 90 -34 109 -41 120 -43 4 0 16 -6 27 -12 11 -6 22 -12 25 -12 5 -1 61 -27
190 -88 36 -17 73 -37 83 -45 9 -8 17 -12 17 -8 0 4 17 -5 37 -19 21 -14 43
-25 49 -25 7 0 14 -3 16 -8 2 -4 35 -27 73 -50 39 -24 79 -48 89 -55 11 -7 31
-22 45 -34 14 -13 31 -23 38 -23 7 0 13 -4 13 -8 0 -4 12 -15 28 -24 15 -9 37
-25 49 -35 55 -46 64 -53 73 -53 6 0 10 -3 10 -7 0 -5 28 -30 62 -58 72 -58
290 -272 363 -359 100 -117 285 -371 285 -391 0 -3 5 -11 10 -18 18 -21 54
-80 84 -137 16 -30 33 -57 36 -60 4 -3 11 -16 15 -30 4 -14 13 -32 19 -40 16
-19 105 -218 145 -324 90 -234 162 -545 186 -796 3 -36 8 -87 11 -115 7 -60 6
-457 0 -500 -3 -16 -8 -66 -11 -110 -4 -44 -9 -89 -11 -100 -2 -11 -6 -36 -9
-55 -3 -19 -7 -46 -10 -60 -2 -13 -7 -42 -11 -64 -3 -22 -7 -43 -9 -47 -2 -3
-7 -19 -9 -35 -6 -30 -12 -58 -22 -96 -3 -13 -7 -34 -10 -47 -3 -13 -9 -31
-13 -40 -5 -9 -9 -18 -9 -21 -1 -3 -3 -12 -6 -20 -4 -12 -23 -79 -32 -112 -1
-5 -3 -10 -4 -13 -1 -3 -3 -8 -4 -12 -1 -5 -7 -17 -13 -28 -6 -11 -11 -22 -11
-25 0 -3 -6 -18 -12 -35 -7 -16 -13 -34 -15 -40 -7 -27 -30 -81 -51 -122 -13
-24 -24 -51 -24 -59 0 -7 -5 -14 -12 -14 -6 0 -9 -3 -5 -6 3 -3 -2 -20 -12
-37 -10 -18 -30 -54 -45 -82 -16 -27 -33 -56 -38 -62 -6 -7 -7 -13 -4 -13 4 0
0 -7 -8 -16 -9 -8 -16 -22 -16 -30 0 -8 -3 -14 -8 -14 -8 0 -23 -26 -42 -72
-7 -16 -15 -28 -19 -28 -5 0 -18 -20 -31 -45 -13 -24 -31 -52 -41 -61 -11 -10
-19 -21 -19 -26 0 -8 -9 -20 -37 -53 -7 -7 -13 -16 -13 -20 0 -6 -11 -21 -40
-53 -9 -9 -33 -39 -55 -67 -22 -27 -51 -63 -65 -80 -47 -55 -265 -270 -325
-320 -33 -27 -65 -54 -71 -60 -112 -100 -379 -279 -548 -368 -246 -130 -512
-231 -779 -296 -159 -39 -190 -45 -285 -57 -25 -3 -48 -7 -51 -9 -3 -1 -44 -6
-91 -10 -47 -4 -94 -9 -105 -11 -26 -6 -450 -5 -495 1 -19 2 -68 7 -108 10
-41 4 -84 8 -95 11 -35 7 -69 12 -117 19 -49 7 -174 35 -310 70 -56 14 -182
56 -202 66 -13 7 -23 11 -23 10 0 -3 -35 8 -80 27 -21 10 -43 18 -47 18 -4 1
-11 3 -15 4 -5 1 -11 2 -15 1 -5 0 -8 4 -8 9 0 5 -3 9 -7 8 -5 0 -26 7 -48 17
-22 10 -43 18 -47 17 -5 -1 -8 3 -8 8 0 5 -3 9 -7 8 -11 -3 -162 72 -169 83
-3 5 -10 7 -15 4 -5 -4 -9 -1 -9 6 0 7 -3 9 -6 6 -4 -3 -18 3 -32 13 -13 11
-30 20 -38 20 -7 0 -14 3 -16 8 -1 4 -34 27 -73 50 -38 24 -79 48 -89 55 -11
7 -31 22 -45 35 -14 12 -31 22 -38 22 -7 0 -13 4 -13 8 0 4 -12 15 -27 24 -16
9 -38 25 -50 35 -55 46 -64 53 -73 53 -6 0 -10 3 -10 8 0 4 -28 30 -62 57 -72
58 -290 272 -363 359 -112 131 -285 371 -285 396 0 5 -4 10 -8 10 -5 0 -16 15
-25 33 -10 17 -33 59 -52 92 -222 379 -371 841 -410 1270 -4 39 -9 81 -11 95
-6 32 -6 476 0 516 3 17 7 64 11 105 3 41 8 86 11 102 21 132 32 192 39 227 3
14 8 36 11 50 3 14 7 33 10 42 5 16 10 40 20 87 3 13 9 31 13 40 5 9 9 18 9
21 1 3 3 12 6 20 4 12 23 79 32 113 1 4 3 9 4 12 1 3 3 8 4 13 1 4 8 18 16 32
7 14 12 25 11 25 -1 0 3 14 9 30 7 17 13 35 15 40 7 27 30 81 51 122 13 24 24
51 24 59 0 7 5 14 12 14 6 0 9 3 5 6 -3 3 2 20 12 37 10 18 30 55 45 82 16 28
33 56 38 63 6 6 7 12 4 12 -4 0 0 7 8 16 9 8 16 21 16 29 0 7 3 15 8 17 9 4
72 107 72 119 0 5 5 9 10 9 6 0 10 6 10 14 0 7 13 29 30 47 16 19 30 39 30 46
0 6 4 13 8 15 5 2 23 25 42 52 18 27 40 57 49 66 9 9 27 31 41 49 72 91 261
288 371 387 48 43 199 164 204 164 3 0 13 8 24 18 19 17 131 95 231 159 259
166 705 351 980 407 14 3 43 10 65 15 47 12 87 19 135 26 19 3 45 8 58 11 12
2 41 7 65 9 23 3 58 7 77 9 19 3 87 8 150 12 63 4 116 7 117 8 5 4 245 -3 328
-9z"/>
</g>
</svg>
